HIERARCHY
ROOT Hips
{
  OFFSET 39.2757 100.996 -138.312
  CHANNELS 6 Xposition Yposition Zposition Zrotation Xrotation Yrotation
  JOINT RightUpLeg
  {
    OFFSET -8.9458 -8.66707 0.101652
    CHANNELS 3 Zrotation Xrotation Yrotation
    JOINT RightLeg
    {
      OFFSET 0 -44.4227 1.3727
      CHANNELS 3 Zrotation Xrotation Yrotation
      JOINT RightFoot
      {
        OFFSET 0.253549 -42.0924 -1.46059
        CHANNELS 3 Zrotation Xrotation Yrotation
        JOINT RightToes
        {
          OFFSET 0.04 -4.41509 8.4991
          CHANNELS 3 Zrotation Xrotation Yrotation
          End Site
          {
            OFFSET -0.08 -0.137448 9.77979
          }
        }
      }
    }
  }
  JOINT Spine
  {
    OFFSET 0 11.8905 0
    CHANNELS 3 Zrotation Xrotation Yrotation
    JOINT Spine1
    {
      OFFSET 0 25.6574 0.127663
      CHANNELS 3 Zrotation Xrotation Yrotation
      JOINT HEad
      {
        OFFSET 0 8.73416 0.011341
        CHANNELS 3 Zrotation Xrotation Yrotation
        End Site
        {
          OFFSET -0.29 12.7742 2.51395
        }
      }
      JOINT LeftShoulder1
      {
        OFFSET 8.99 -0.362252 -0.22
        CHANNELS 3 Zrotation Xrotation Yrotation
        JOINT LeftArm
        {
          OFFSET 10.2827 -0.00338 0.322123
          CHANNELS 3 Zrotation Xrotation Yrotation
          JOINT LeftForeArm
          {
            OFFSET 32.7669 0.099144 -1.42434
            CHANNELS 3 Zrotation Xrotation Yrotation
            JOINT LeftHand
            {
              OFFSET 27.5643 0.085362 1.02216
              CHANNELS 3 Zrotation Xrotation Yrotation
              End Site
              {
                OFFSET 16.7443 -0.6 1.50291
              }
            }
          }
        }
      }
      JOINT RightShoulder
      {
        OFFSET -8.99 -0.362252 -0.22
        CHANNELS 3 Zrotation Xrotation Yrotation
        JOINT RightArm
        {
          OFFSET -10.2827 -0.00338 0.322123
          CHANNELS 3 Zrotation Xrotation Yrotation
          JOINT RightForeArm
          {
            OFFSET -32.8971 0.099144 -1.42434
            CHANNELS 3 Zrotation Xrotation Yrotation
            JOINT RightHand
            {
              OFFSET -27.4921 0.085362 1.02216
              CHANNELS 3 Zrotation Xrotation Yrotation
              End Site
              {
                OFFSET -16.6312 -0.6 1.50291
              }
            }
          }
        }
      }
    }
  }
  JOINT LeftUpLeg
  {
    OFFSET 8.9458 -8.66707 0.101652
    CHANNELS 3 Zrotation Xrotation Yrotation
    JOINT LeftLeg
    {
      OFFSET 0 -44.4227 1.3727
      CHANNELS 3 Zrotation Xrotation Yrotation
      JOINT LeftFoot
      {
        OFFSET -0.253549 -42.0924 -1.46059
        CHANNELS 3 Zrotation Xrotation Yrotation
        JOINT LeftToes
        {
          OFFSET -0.04 -4.41509 8.4991
          CHANNELS 3 Zrotation Xrotation Yrotation
          End Site
          {
            OFFSET 0.08 -0.047448 9.77979
          }
        }
      }
    }
  }
}
MOTION
Frames:	12
Frame Time:	0.0166667
43.4502 102.192 -149.339 -0.24864 0.0312184 0.0582553 -0.512847 -21.4182 -0.0634519 5.29997 18.2623 -25.3704 -0.27715 -8.35789 -0.24165 0.0462048 0.000533964 0.662642 0.477533 3.56608 0.480917 2.79409 3.62629 -0.0604872 1.93292 -1.18499 -0.0913973 -1.05604e-016 -1.59028e-015 -9.93923e-017 -98.7416 -33.0999 -20.9705 -17.4585 13.7393 -10.2298 0.368473 9.90896 -0.00117927 -1.33861 0.0401329 -2.80038 83.6036 -38.9707 -2.87763 17.3103 14.5476 16.0378 -0.369625 9.91382 0.00119886 0.286421 4.80053 -0.0899887 -4.16822 30.376 11.1644 -8.85059 -4.85795 -0.0507342 1.08059e-012 7.63333e-013 -3.60993e-013 
42.9815 102.316 -148.006 -0.59297 0.0701419 0.065364 0.201773 -20.7062 1.00905 5.62372 18.452 -26.5305 -0.214058 -9.34426 -0.254726 0.0462048 0.000533964 0.662642 0.915572 3.67494 0.489534 3.16198 3.46109 -0.0639977 1.81555 -1.09789 -0.0237833 9.81499e-016 2.38542e-015 4.96962e-017 -97.9341 -34.1794 -19.2791 -17.6543 13.9494 -11.5282 0.368473 9.90896 -0.00117927 -1.28305 0.0401309 -2.85577 83.7707 -38.6642 -2.30122 17.3235 14.5727 16.2352 -0.369625 9.91382 0.00119886 1.09793 3.7581 0.481816 -4.29372 32.9263 12.4323 -8.56921 -2.86369 0.101182 7.3593 3.35398 -1.5756 
42.5213 102.39 -146.71 -0.96456 0.106334 0.131236 0.909825 -20.1025 1.87233 5.90069 18.8393 -27.5263 -0.0883294 -10.4147 -0.262841 0.0462048 0.000533964 0.662642 1.41043 3.78056 0.488097 3.53922 3.3735 -0.0706962 1.71251 -1.10166 0.0339355 -1.17407e-015 0 9.93923e-017 -97.1624 -35.1793 -17.7527 -17.7868 14.1204 -12.6425 0.368473 9.90896 -0.00117927 -1.27872 0.0401293 -2.90215 84.0002 -38.2802 -1.67275 17.3665 14.6093 16.4913 -0.369625 9.91382 0.00119886 1.92571 2.49379 1.22153 -4.29794 35.7454 13.5155 -8.19125 -0.733297 0.247396 15.7702 6.43996 -3.60224 
42.086 102.328 -145.513 -1.40744 0.120154 0.338155 1.67963 -19.8036 2.20299 6.01141 19.8272 -28.0868 0.232283 -11.744 -0.257563 0.0462048 0.000533964 0.662642 2.08004 3.88052 0.452255 3.93295 3.53138 -0.0867336 1.63703 -1.37966 0.109003 -1.2424e-017 3.18055e-015 -0 -96.6207 -36.0101 -16.7535 -17.7601 14.1988 -13.2132 0.368473 9.90896 -0.00117927 -1.43826 0.0401281 -2.93559 84.4515 -37.6766 -0.880419 17.4923 14.676 16.8995 -0.369625 9.91382 0.00119886 2.83563 0.660492 2.54747 -3.68345 39.3808 13.9347 -7.55424 1.81603 0.393054 27.6916 8.68036 -7.04414 
41.66 102.186 -144.379 -1.89907 0.159592 0.674321 2.45393 -19.6915 2.19542 6.09871 21.0635 -28.3905 0.605486 -13.1441 -0.243536 0.0462048 0.000533964 0.662642 2.79837 3.96914 0.414805 4.35948 3.74157 -0.10643 1.60853 -1.7453 0.0801479 4.84538e-016 -4.77083e-015 1.98785e-016 -96.2414 -36.6928 -16.0558 -17.6738 14.2428 -13.5679 0.368473 9.90896 -0.00117927 -1.62869 0.0401282 -2.93179 84.8936 -36.9754 -0.0524864 17.6602 14.762 17.4148 -0.369625 9.91382 0.00119886 3.77614 -1.58082 3.885 -2.66289 43.456 13.9558 -6.71937 4.48032 0.504543 39.4059 10.654 -10.8171 
41.2283 101.988 -143.3 -2.44944 0.288421 1.17622 3.17003 -19.7297 1.82431 6.26592 22.3281 -28.3967 0.928603 -14.4742 -0.220659 0.0462048 0.000533964 0.662642 3.46227 4.03979 0.408765 4.86567 3.83654 -0.126362 1.65581 -2.0612 -0.239398 8.69683e-016 0 1.98785e-016 -96.034 -37.1944 -15.5668 -17.5851 14.2916 -13.9438 0.368473 9.90896 -0.00117927 -1.74372 0.04615 -2.85039 85.1213 -36.2495 0.672105 17.8655 14.875 18.0921 -0.369625 9.91382 0.00119886 4.61447 -4.26754 4.87341 -1.15381 47.866 13.4121 -5.34335 6.98909 0.494621 50.6892 12.9669 -15.3347 
40.8049 101.751 -142.266 -3.01094 0.439506 1.78131 3.86038 -19.8577 1.40725 6.46513 23.6321 -28.4461 1.21433 -15.7682 -0.194489 0.0462048 0.000533964 0.662642 4.12034 4.09284 0.40917 5.36623 3.90727 -0.145864 1.75028 -2.36297 -0.626331 9.44227e-016 -1.59028e-015 1.98785e-016 -95.9098 -37.5678 -15.218 -17.5048 14.3319 -14.2571 0.368473 9.90896 -0.00117927 -1.81533 0.0526425 -2.73558 85.2574 -35.5134 1.46373 18.0524 14.9777 18.7249 -0.369625 9.91382 0.00119886 5.37347 -7.15925 5.30929 0.511886 52.2975 12.982 -4.44155 9.5251 0.52549 53.3268 15.067 -17.0662 
40.4 101.483 -141.272 -3.56202 0.575636 2.46024 4.58201 -20.0604 1.41064 6.76094 24.9451 -29.0686 1.45043 -17.0676 -0.16925 0.0462048 0.000533964 0.662642 4.83892 4.13643 0.394233 5.79441 3.98329 -0.162647 1.89348 -2.64732 -0.894157 -1.10348e-032 1.59028e-015 3.97569e-016 -95.7723 -37.8517 -14.9124 -17.4599 14.358 -14.4779 0.368473 9.90896 -0.00117927 -1.81674 0.0590786 -2.64307 85.3185 -34.8109 2.45279 18.1596 15.0335 19.09 -0.369625 9.91382 0.00119886 5.92159 -10.0679 4.69261 1.57471 56.3916 13.6681 -5.57233 12.9192 0.854132 31.7243 16.957 -10.0326 
40.0101 101.24 -140.295 -4.0264 0.670831 3.14986 5.20616 -20.1716 1.36549 7.05488 26.1039 -29.6943 1.60644 -18.2092 -0.149427 0.0462048 0.000533964 0.662642 5.46194 4.14065 0.387414 6.14154 4.08149 -0.178169 2.04055 -2.89399 -1.11865 -7.95139e-016 1.59028e-015 -7.95139e-016 -95.6172 -38.0503 -14.6226 -17.4589 14.3859 -14.6817 0.368473 9.90896 -0.00117927 -1.81731 0.0689117 -2.498 85.3954 -34.1119 3.60735 18.2131 15.0609 19.2883 -0.369625 9.91382 0.00119886 6.19102 -12.912 3.47121 1.80337 60.0749 15.4628 -6.87671 14.9548 1.12689 5.67965 17.8111 -1.35264 
39.635 101.096 -139.305 -4.2792 0.684872 3.76306 5.56436 -19.9803 0.817004 7.17854 26.9121 -29.7662 1.60691 -18.9395 -0.145662 0.0462048 0.000533964 0.662642 5.78635 4.05547 0.416485 6.37361 4.23448 -0.194163 2.11223 -3.09262 -1.31887 -3.37934e-015 -1.59028e-015 3.97569e-016 -95.3802 -38.1493 -14.2536 -17.5381 14.44 -14.9841 0.368473 9.90896 -0.00117927 -1.8992 0.088905 -2.18988 85.5663 -33.349 4.9138 18.2484 15.0758 19.4233 -0.369625 9.91382 0.00119886 6.16447 -15.5394 1.88827 0.556111 63.2137 19.1493 -6.506 12.5633 0.933582 -5.95333 17.3806 2.4999 
39.2757 100.996 -138.312 -4.43443 0.623996 4.34225 5.83868 -19.6004 0.191017 7.21827 27.532 -29.6693 1.57189 -19.5713 -0.144479 0.0462048 0.000533964 0.662642 6.01956 3.94938 0.446709 6.49992 4.42462 -0.20753 2.21284 -3.21026 -1.47836 9.93923e-016 3.18055e-015 -7.95139e-016 -95.1359 -38.2407 -13.9065 -17.6393 14.4878 -15.2364 0.368473 9.90896 -0.00117927 -1.99766 0.108615 -1.88131 85.879 -32.6737 6.44387 18.1704 15.0449 19.2661 -0.369625 9.91382 0.00119886 5.8764 -17.9216 0.0560922 -1.78508 65.4632 23.4887 -5.7854 9.13653 0.647696 -12.6705 15.7215 4.52109 
38.9299 100.912 -137.313 -4.57706 0.447992 4.93623 6.16461 -19.03 -0.232428 7.23063 28.0218 -29.5906 1.58903 -20.406 -0.137452 0.0462048 0.000533964 0.662642 6.31518 3.8868 0.444796 6.50655 4.67754 -0.216417 2.48953 -3.20746 -1.59396 1.98785e-016 -3.18055e-015 -7.95139e-016 -94.9856 -38.4187 -13.7556 -17.6801 14.4823 -15.2078 0.368473 9.90896 -0.00117927 -2.03599 0.116746 -1.75512 86.4291 -32.2468 8.33053 17.8706 14.9177 18.5092 -0.369625 9.91382 0.00119886 5.43595 -19.9333 -1.87016 -3.92419 66.5364 26.2854 -5.41755 7.59033 0.532552 -18.547 12.1191 5.67518 
